<svg width="34" height="37" viewBox="0 0 34 37" fill="none" xmlns="http://www.w3.org/2000/svg">
<path d="M21.9151 12.6667V4C21.9151 2.34315 20.572 1 18.9151 1H4C2.34315 1 1 2.34315 1 4V33C1 34.6569 2.34315 36 4 36H18.9151C20.572 36 21.9151 34.6569 21.9151 33V24.3333" stroke="#212124" stroke-width="2" stroke-linecap="round"/>
<path d="M14.5947 17.5C14.0424 17.5 13.5947 17.9477 13.5947 18.5C13.5947 19.0523 14.0424 19.5 14.5947 19.5V18.5V17.5ZM33.7071 19.2071C34.0976 18.8166 34.0976 18.1834 33.7071 17.7929L27.3432 11.4289C26.9526 11.0384 26.3195 11.0384 25.9289 11.4289C25.5384 11.8195 25.5384 12.4526 25.9289 12.8431L31.5858 18.5L25.9289 24.1569C25.5384 24.5474 25.5384 25.1805 25.9289 25.5711C26.3195 25.9616 26.9526 25.9616 27.3432 25.5711L33.7071 19.2071ZM14.5947 18.5V19.5H33V18.5V17.5H14.5947V18.5Z" fill="#212124"/>
</svg>
