<svg width="32" height="32" viewBox="0 0 32 32" fill="none" xmlns="http://www.w3.org/2000/svg">
<path d="M29.6697 31.2662C30.0603 31.6567 30.6934 31.6567 31.0839 31.2662C31.4745 30.8756 31.4745 30.2425 31.0839 29.8519L30.3768 30.559L29.6697 31.2662ZM20.4658 20.6479L19.7587 21.3551L29.6697 31.2662L30.3768 30.559L31.0839 29.8519L21.1729 19.9408L20.4658 20.6479Z" fill="#212124"/>
<path d="M12.3174 1C18.5744 1 23.6357 6.03581 23.6357 12.2334C23.6357 18.431 18.5744 23.4668 12.3174 23.4668C6.06046 23.4666 1 18.4309 1 12.2334C1.00005 6.0359 6.06049 1.00015 12.3174 1Z" stroke="#212124" stroke-width="2"/>
</svg>
