<svg width="66" height="71" viewBox="0 0 66 71" fill="none" xmlns="http://www.w3.org/2000/svg">
<mask id="mask0_595_468" style="mask-type:alpha" maskUnits="userSpaceOnUse" x="0" y="35" width="66" height="36">
<rect y="35.7676" width="66" height="34.7742" fill="#D9D9D9"/>
</mask>
<g mask="url(#mask0_595_468)">
<path d="M33 38.2676C50.0902 38.2676 63.5 50.7266 63.5 65.5742C63.4999 80.4218 50.0901 92.8809 33 92.8809C15.9099 92.8809 2.50011 80.4218 2.5 65.5742C2.5 50.7266 15.9098 38.2676 33 38.2676Z" stroke="#212124" stroke-width="5"/>
<path d="M61 70.5581C62.3807 70.5581 63.5 69.4388 63.5 68.0581C63.5 66.6774 62.3807 65.5581 61 65.5581V68.0581V70.5581ZM5 68.0581V70.5581H61V68.0581V65.5581H5V68.0581Z" fill="#212124"/>
</g>
<circle cx="32.9998" cy="16.9451" r="14.4451" stroke="#212124" stroke-width="5"/>
</svg>
